<svg width="32" height="32" viewBox="0 0 32 32" fill="none" xmlns="http://www.w3.org/2000/svg">
<g id="&#240;&#159;&#166;&#134; emoji &#34;busts in silhouette&#34;">
<path id="Vector" d="M23.1778 29.6807C23.0413 29.3677 15.6263 24.9564 15.6177 24.9505C14.5719 24.1815 14.4444 23.4332 15.2881 23.0033C16.0119 22.6359 16.6343 21.4513 17.1036 20.1836C17.1895 20.2214 17.2791 20.2294 17.3708 20.2033C19.3404 19.6273 19.3756 15.6523 18.0583 16.3542C19.2898 5.6101 4.41444 5.60476 5.64592 16.3547C4.32697 15.6513 4.36324 19.6273 6.33233 20.2033C6.42353 20.2294 6.51419 20.2214 6.60006 20.1841C7.06887 21.4513 7.6902 22.6359 8.41394 23.0033C9.26462 23.4364 9.09662 24.1479 8.06354 24.9671C7.71901 25.2407 2.91843 27.917 1.56321 28.8226C1.56055 28.8231 1.55575 28.8263 1.55575 28.8263H1.55735C0.997876 29.2013 0.600006 29.5127 0.525872 29.6813C0.139735 30.5714 0 32.0007 0 32.0007H23.7037C23.7037 32.0007 23.565 30.5714 23.1778 29.6807Z" fill="black"/>
<path id="Vector_2" d="M17.3565 9.52914C18.3245 10.615 19.3902 12.4849 19.3128 15.4113C19.6883 15.6924 20.0019 16.1735 20.1086 16.9191C20.3048 18.2962 19.7443 20.5522 17.9539 21.2546C17.4691 22.3986 16.9395 23.2061 16.3512 23.7026H31.9999C31.9999 23.7026 31.8601 22.2733 31.474 21.3826C31.3375 21.0701 23.9225 16.6588 23.9145 16.6524C22.8675 15.8839 22.7406 15.1356 23.5843 14.7057C24.3081 14.3377 24.9299 13.1537 25.3998 11.886C25.4851 11.9233 25.5758 11.9318 25.667 11.9046C27.6361 11.3297 27.6718 7.35472 26.3545 8.0566C27.5604 -2.46084 13.3416 -2.6811 13.8946 7.39739C15.2301 7.77073 16.4371 8.49873 17.3565 9.52914Z" fill="black"/>
</g>
</svg>
