<svg width="175" height="178" viewBox="0 0 175 178" fill="none" xmlns="http://www.w3.org/2000/svg">
<path d="M167.045 0.00366211H7.95032C3.95647 0.00366211 0.71875 3.32404 0.71875 7.42018V170.584C0.71875 174.68 3.95647 178 7.95032 178H167.045C171.039 178 174.276 174.68 174.276 170.584V7.42018C174.276 3.32404 171.039 0.00366211 167.045 0.00366211Z" fill="#D9D9D9"/>
<path d="M117.795 148.537C117.212 147.165 85.5442 127.847 85.5078 127.821C81.041 124.453 80.4966 121.176 84.1001 119.293C87.191 117.684 89.8492 112.496 91.8536 106.944C92.2204 107.11 92.603 107.145 92.9948 107.031C101.407 104.508 101.557 87.1002 95.9309 90.174C101.19 43.1211 37.6608 43.0977 42.9202 90.1764C37.2872 87.0956 37.4421 104.508 45.8517 107.031C46.2412 107.145 46.6284 107.11 46.9951 106.947C48.9973 112.496 51.6509 117.684 54.7418 119.293C58.3749 121.19 57.6574 124.306 53.2453 127.893C51.7739 129.092 31.2716 140.812 25.4838 144.778C25.4724 144.781 25.4519 144.795 25.4519 144.795H25.4587C23.0693 146.437 21.3701 147.801 21.0535 148.539C19.4044 152.437 18.8076 158.697 18.8076 158.697H120.041C120.041 158.697 119.449 152.437 117.795 148.537Z" fill="black"/>
<path d="M92.9343 60.2844C97.0684 65.0399 101.619 73.2289 101.289 86.045C102.893 87.2759 104.232 89.3827 104.688 92.648C105.526 98.6788 103.132 108.559 95.4854 111.635C93.4149 116.645 91.1531 120.181 88.6407 122.356H155.473C155.473 122.356 154.876 116.096 153.227 112.196C152.644 110.827 120.976 91.5082 120.942 91.4802C116.471 88.1144 115.928 84.8374 119.532 82.9548C122.623 81.3432 125.279 76.1579 127.285 70.6059C127.65 70.7694 128.037 70.8068 128.427 70.6877C136.836 68.1698 136.989 50.7617 131.363 53.8355C136.513 7.77521 75.7872 6.81056 78.1492 50.9485C83.8528 52.5835 89.0074 55.7718 92.9343 60.2844Z" fill="black"/>
</svg>
