<svg width="49" height="48" viewBox="0 0 49 48" fill="none" xmlns="http://www.w3.org/2000/svg">
<path d="M2.24805 1.5H40.748C44.3379 1.5 47.248 4.41015 47.248 8V40C47.248 43.5899 44.3379 46.5 40.748 46.5H2.24805V1.5Z" fill="black" stroke="black" stroke-width="3"/>
<path d="M28.9773 26.6762H28.0992L27.788 26.3761C28.9149 25.069 29.5343 23.4002 29.5331 21.6743C29.5331 20.2453 29.1094 18.8484 28.3155 17.6602C27.5216 16.4721 26.3932 15.546 25.073 14.9992C23.7528 14.4523 22.3 14.3093 20.8985 14.588C19.497 14.8668 18.2096 15.5549 17.1992 16.5654C16.1887 17.5758 15.5006 18.8632 15.2218 20.2647C14.9431 21.6663 15.0861 23.119 15.633 24.4392C16.1798 25.7594 17.1059 26.8878 18.294 27.6817C19.4822 28.4756 20.8791 28.8993 22.3081 28.8993C24.0976 28.8993 25.7427 28.2435 27.0099 27.1542L27.31 27.4654V28.3435L32.8677 33.8902L34.524 32.234L28.9773 26.6762ZM22.3081 26.6762C19.5403 26.6762 17.3061 24.442 17.3061 21.6743C17.3061 18.9065 19.5403 16.6723 22.3081 16.6723C25.0758 16.6723 27.31 18.9065 27.31 21.6743C27.31 24.442 25.0758 26.6762 22.3081 26.6762Z" fill="white"/>
</svg>
