<svg width="32" height="31" viewBox="0 0 32 31" fill="none" xmlns="http://www.w3.org/2000/svg">
<path d="M0 26.2033C0 28.8027 2.08 30.7904 4.8 30.7904H27.2C29.92 30.7904 32 28.8027 32 26.2033V13.971H0V26.2033ZM27.2 3.26779H24V1.73875C24 0.82133 23.36 0.209717 22.4 0.209717C21.44 0.209717 20.8 0.82133 20.8 1.73875V3.26779H11.2V1.73875C11.2 0.82133 10.56 0.209717 9.6 0.209717C8.64 0.209717 8 0.82133 8 1.73875V3.26779H4.8C2.08 3.26779 0 5.25553 0 7.85489V10.913H32V7.85489C32 5.25553 29.92 3.26779 27.2 3.26779Z" fill="black"/>
</svg>
