<svg width="52" height="52" viewBox="0 0 52 52" fill="none" xmlns="http://www.w3.org/2000/svg">
<path d="M36.9419 43.94C34.8185 45.9983 32.5002 45.6733 30.2685 44.6983C27.9069 43.7017 25.7402 43.6583 23.2485 44.6983C20.1285 46.0417 18.4819 45.6517 16.6185 43.94C6.04519 33.0417 7.60519 16.445 19.6085 15.8383C22.5335 15.99 24.5702 17.4417 26.2819 17.5717C28.8385 17.0517 31.2869 15.5567 34.0169 15.7517C37.2885 16.0117 39.7585 17.3117 41.3835 19.6517C34.6235 23.7033 36.2269 32.6083 42.4235 35.1C41.1885 38.35 39.5852 41.5783 36.9202 43.9617L36.9419 43.94ZM26.0652 15.7083C25.7402 10.8767 29.6619 6.89 34.1685 6.5C34.7969 12.09 29.0985 16.25 26.0652 15.7083Z" fill="black"/>
</svg>
