<svg width="64" height="64" viewBox="0 0 64 64" fill="none" xmlns="http://www.w3.org/2000/svg">
<rect width="64" height="64" fill="#D9D9D9"/>
<path d="M43.9419 49.94C41.8185 51.9983 39.5002 51.6733 37.2685 50.6983C34.9069 49.7017 32.7402 49.6583 30.2485 50.6983C27.1285 52.0417 25.4819 51.6517 23.6185 49.94C13.0452 39.0417 14.6052 22.445 26.6085 21.8383C29.5335 21.99 31.5702 23.4417 33.2819 23.5717C35.8385 23.0517 38.2869 21.5567 41.0169 21.7517C44.2885 22.0117 46.7585 23.3117 48.3835 25.6517C41.6235 29.7033 43.2269 38.6083 49.4235 41.1C48.1885 44.35 46.5852 47.5783 43.9202 49.9617L43.9419 49.94ZM33.0652 21.7083C32.7402 16.8767 36.6619 12.89 41.1685 12.5C41.7969 18.09 36.0985 22.25 33.0652 21.7083Z" fill="black"/>
</svg>
