<svg width="52" height="52" viewBox="0 0 52 52" fill="none" xmlns="http://www.w3.org/2000/svg">
<path d="M46.2584 24.0499H26.3901V29.9649H40.4951C39.7801 38.2199 32.9118 41.7516 26.4118 41.7516C18.1134 41.7516 10.8334 35.2083 10.8334 25.9999C10.8334 17.1166 17.7668 10.2483 26.4334 10.2483C33.1284 10.2483 37.0501 14.5166 37.0501 14.5166L41.1668 10.2266C41.1668 10.2266 35.8801 4.33325 26.2168 4.33325C13.9101 4.33325 4.39844 14.7333 4.39844 25.9999C4.39844 36.9416 13.3468 47.6666 26.5418 47.6666C38.1334 47.6666 46.5834 39.7149 46.5834 27.9716C46.5834 25.4799 46.2584 24.0499 46.2584 24.0499Z" fill="black"/>
</svg>
